<?xml version='1.0' encoding='utf-8'?>
<svg xmlns="http://www.w3.org/2000/svg" viewBox="0 0 406.99026 354.43411" width="800" height="600"><rect width="100%" height="100%" fill="white" /><path id="path2223" d="m 38.419995,-206.86661 13.898014,-18.30796 13.764382,0.93544 4.81085,23.052 -2.539061,41.22632 -17.84024,0.60136 z" fill="#ff6b6b" stroke="#000" stroke-width="0.5" opacity="0.7" /><text x="38.419995" y="-206.86661" font-size="4" fill="black" font-weight="bold">path2223</text><path id="path2023" d="m 36.916603,56.894999 c -0.438803,-0.05083 -0.863565,-0.218245 -1.219041,-0.480481 -0.355476,-0.262237 -0.640809,-0.618659 -0.818888,-1.02291 -0.193709,-0.439731 -0.259382,-0.927341 -0.254145,-1.40782 0.0052,-0.480478 0.079,-0.957288 0.153918,-1.431919 0.171811,-1.088535 0.357542,-2.197496 0.868627,-3.173825 0.595716,-1.138001 1.630545,-2.038911 2.839738,-2.472243 l 0.601356,4.677217 c -0.859856,0.745295 -1.513635,1.725964 -1.870887,2.806329 -0.265871,0.804021 -0.368775,1.661555 -0.300678,2.505652 z" fill="#ff6b6b" stroke="#000" stroke-width="0.5" opacity="0.7" /><text x="36.916603" y="56.894999" font-size="4" fill="black" font-weight="bold">path2023</text><path id="path2033" d="m 39.756341,41.727455 c -0.597254,1.034122 -1.079997,2.134325 -1.436573,3.27405 -0.355835,1.137357 -0.58636,2.317177 -0.634765,3.507914 -0.0708,1.741551 0.246814,3.472948 0.367496,5.211755 0.09886,1.424447 0.06526,2.85806 -0.100227,4.276312 0.19966,-1.000302 0.59962,-1.960204 1.169305,-2.806329 0.115722,-0.171876 0.238352,-0.339099 0.367496,-0.501132 0.09036,0.606738 0.179447,1.213665 0.26727,1.820775 0.195602,1.352162 0.384919,2.705234 0.567945,4.059156 0.138592,-1.404233 0.418877,-2.794443 0.835219,-4.142678 0.185063,-0.599286 0.396933,-1.190293 0.634764,-1.770662 0.506985,0.283074 0.945812,0.687257 1.269531,1.169305 0.629148,0.93686 0.809328,2.125278 1.469983,3.040192 0.356443,0.493623 0.846143,0.890047 1.403165,1.135896 0.341733,-1.000564 0.599076,-2.029935 0.7684,-3.073601 0.213118,-1.313602 0.286524,-2.645707 0.334087,-3.975634 0.09904,-2.769358 0.08196,-5.584278 -0.668174,-8.251947 -0.337295,-1.19951 -0.82086,-2.357816 -1.436573,-3.441094 z" fill="#ff6b6b" stroke="#000" stroke-width="0.5" opacity="0.7" /><text x="39.756341" y="41.727455" font-size="4" fill="black" font-weight="bold">path2033</text><path id="path2013" d="m 47.373524,37.918863 c 0.519575,1.579857 0.998643,3.173036 1.436573,4.777444 0.552013,2.022362 1.039563,4.067464 1.302938,6.147199 0.204986,1.618665 0.273301,3.251073 0.400905,4.877668 0.150961,1.924343 0.385113,3.842159 0.701582,5.746295 -0.641876,0.220784 -1.375543,0.158608 -1.971111,-0.167045 -0.480305,-0.262628 -0.857892,-0.67732 -1.202714,-1.102484 -0.764705,-0.942879 -1.416704,-1.977083 -1.937705,-3.073601 L 44.700827,37.78523 Z" fill="#ff6b6b" stroke="#000" stroke-width="0.5" opacity="0.7" /><text x="47.373524" y="37.918863" font-size="4" fill="black" font-weight="bold">path2013</text><path id="path1734" d="m 51.783469,-27.929665 c 0.478404,3.205665 0.946129,6.412923 1.403167,9.621703 0.50801,3.566646 1.004039,7.157501 0.868625,10.757598 C 53.856819,-2.2746251 52.312849,2.8423799 50.981662,7.9512683 49.294721,14.425486 47.933807,20.984642 46.905801,27.595578 46.66258,22.604002 46.373021,17.614685 46.037174,12.628485 45.42874,3.5952825 44.677465,-5.5792631 46.571714,-14.432554 c 1.013243,-4.735667 2.779352,-9.309437 5.211755,-13.497111 z" fill="#ff6b6b" stroke="#000" stroke-width="0.5" opacity="0.7" /><text x="51.783469" y="-27.929665" font-size="4" fill="black" font-weight="bold">path1734</text><path id="path1286" d="m 25.418898,-126.31492 c -0.161,0.82571 -0.382266,1.63965 -0.661458,2.43323 -0.381999,1.08579 -0.877874,2.15821 -0.94494,3.30729 -0.06538,1.12024 0.283175,2.21904 0.637834,3.28367 0.418727,1.25695 0.851863,2.50911 1.299294,3.75613 l 1.535528,-10.93768 z" fill="#ff6b6b" stroke="#000" stroke-width="0.5" opacity="0.7" /><text x="25.418898" y="-126.31492" font-size="4" fill="black" font-weight="bold">path1286</text><path id="path950" d="m 21.247927,-175.32881 c 0.824664,3.14621 1.671045,6.28672 2.539061,9.42125 0.679312,2.45309 1.371871,4.90249 2.071339,7.34991 1.089131,3.81084 2.198519,7.63309 2.739511,11.55941 0.272186,1.97543 0.396393,4.00721 -0.06682,5.94675 -0.36719,1.53748 -1.089923,2.96233 -1.782018,4.38349 -0.692094,1.42115 -1.366615,2.87705 -1.625668,4.4364 -0.23298,1.4024 -0.117186,2.8614 0.334087,4.2095 1.528772,1.99122 3.205321,3.86895 5.011304,5.61266 1.45683,1.4066 3.0155,2.73816 4.810852,3.67495 1.295175,0.6758 2.732434,1.14189 4.192789,1.10249 0.748355,-0.0202 1.492923,-0.17365 2.188271,-0.45102 -0.147464,-0.97764 -0.314553,-1.95232 -0.501132,-2.92326 -0.329018,-1.71217 -0.719006,-3.41493 -0.935442,-5.14494 -0.490514,-3.92076 -0.0808,-7.89071 0.267269,-11.82667 0.332088,-3.75528 0.607844,-7.53216 0.334086,-11.29214 -0.183806,-2.52452 -0.614416,-5.0261 -0.801809,-7.55036 -0.146909,-1.97892 -0.14392,-3.96622 -0.267269,-5.94675 -0.459295,-7.37458 -2.701215,-14.63193 -6.481286,-20.98066 l -13.229841,2.6727 1.202713,5.74629 z" fill="#ff6b6b" stroke="#000" stroke-width="0.5" opacity="0.7" /><text x="21.247927" y="-175.32881" font-size="4" fill="black" font-weight="bold">path950</text><path id="path1211" d="m 24.899181,-213.08407 c 3.408508,-0.81784 6.930463,-1.02221 10.394346,-1.55916 2.845327,-0.44106 5.694779,-1.12253 8.220983,-2.50409 2.421196,-1.32413 4.492911,-3.28076 5.953124,-5.6224 l 1.842633,19.63114 -29.115799,-5.82764 1.477423,-3.79533 c 0.406723,-0.11628 0.815946,-0.22382 1.22729,-0.32252 z" fill="#ff6b6b" stroke="#000" stroke-width="0.5" opacity="0.7" /><text x="24.899181" y="-213.08407" font-size="4" fill="black" font-weight="bold">path1211</text><path id="path861" d="m 10.583333,-174.5305 c -0.7938316,-2.37365 -1.4039555,-4.80872 -1.8231181,-7.27625 -0.7917963,-4.66115 -0.8878063,-9.52035 0.4613778,-14.05168 1.1957583,-4.01604 3.4983813,-7.6539 6.3699253,-10.70556 1.984561,-2.10904 4.246471,-3.9568 6.709077,-5.48065 0.935454,0.40525 1.922279,0.69175 2.929315,0.85045 2.727321,0.42979 5.52285,-0.0809 8.270604,0.18898 3.096335,0.30414 6.004848,1.58339 8.809891,2.92932 3.087201,1.48132 6.131124,3.0677 8.999862,4.93731 0.867569,0.56541 1.718505,1.15634 2.55134,1.77177 l -1.734156,14.12046 z" fill="#ff6b6b" stroke="#000" stroke-width="0.5" opacity="0.7" /><text x="10.583333" y="-174.5305" font-size="4" fill="black" font-weight="bold">path861</text><path id="path968" d="m 17.506154,-183.94825 11.693043,-2.07134 c -2.664305,1.09846 -4.841614,3.32526 -5.879931,6.01357 -0.721315,1.86756 -0.901694,3.89166 -1.135896,5.87993 -0.270346,2.29512 -0.647483,4.65432 -1.870886,6.61492 -0.340396,0.54551 -0.741233,1.05091 -1.092805,1.58929 -0.351573,0.53837 -0.657242,1.12003 -0.778082,1.75157 -0.171998,0.89891 0.04129,1.82524 0,2.73952 -0.04574,1.01297 -0.401451,1.98239 -0.734991,2.93996 -1.021008,2.93126 -1.869316,5.92266 -2.53906,8.95353 -0.392689,-0.92106 -0.749411,-1.85745 -1.069079,-2.80633 -0.732239,-2.17352 -1.269628,-4.41264 -1.603617,-6.68174 z" fill="#ff6b6b" stroke="#000" stroke-width="0.5" opacity="0.7" /><text x="17.506154" y="-183.94825" font-size="4" fill="black" font-weight="bold">path968</text><path id="path847" d="m 53.861607,-201.36681 c 0.608039,1.31259 1.11403,2.67244 1.511903,4.06324 0.579136,2.02441 0.929706,4.13817 0.755954,6.23661 -0.146627,1.77084 -0.66407,3.51741 -0.566965,5.29166 0.07624,1.39306 0.530994,2.77101 0.377976,4.15774 -0.153678,1.39271 -0.9098,2.6681 -1.039434,4.06325 -0.07237,0.77888 0.05436,1.56231 0.217782,2.32729 0.163425,0.76497 0.364429,1.5247 0.443676,2.30291 0.183039,1.79746 -0.289551,3.58869 -0.472469,5.38616 -0.05617,0.55201 -0.08542,1.10912 -0.207695,1.65034 -0.122277,0.54122 -0.346137,1.07439 -0.737246,1.46797 -0.390272,0.39274 -0.922156,0.62036 -1.464425,0.73218 -0.54227,0.11181 -1.100207,0.11619 -1.65388,0.11826 -3.442026,0.0129 -6.897141,-0.048 -10.29985,-0.56696 -3.730416,-0.5689 -7.530727,-1.77927 -10.205358,-4.44122 -1.387431,-1.38086 -2.406191,-3.08913 -3.260592,-4.8503 -0.854402,-1.76117 -1.5586,-3.59198 -2.40905,-5.35506 -1.20237,-2.49265 -2.696164,-4.84459 -4.44122,-6.99256" fill="#ff6b6b" stroke="#000" stroke-width="0.5" opacity="0.7" /><text x="53.861607" y="-201.36681" font-size="4" fill="black" font-weight="bold">path847</text><path id="path928" d="m -1.8898809,-138.859 0.1889881,-0.0472 c 2.16796406,-1.34398 4.2383145,-2.84538 6.1893601,-4.48847 2.7222113,-2.29254 5.2116807,-4.86129 7.4177827,-7.65401 0.355663,0.66113 0.596555,1.38381 0.708705,2.12611 0.08021,0.53089 0.09489,1.06949 0.09449,1.6064 -5.8e-4,0.77255 -0.03211,1.54507 -0.09449,2.3151 -1.050183,1.34827 -2.170369,2.642 -3.3545384,3.87426 -1.1343623,1.18043 -2.3270218,2.30411 -3.4490327,3.49628 -1.4443022,1.53462 -2.7692012,3.18024 -4.2522321,4.67746 -2.11335204,2.13358 -4.5415765,3.95474 -7.1815476,5.38616 l 3.7325149,-11.29204 z" fill="#ff6b6b" stroke="#000" stroke-width="0.5" opacity="0.7" /><text x="-1.8898809" y="-138.859" font-size="4" fill="black" font-weight="bold">path928</text><path id="path948" d="m 14.733233,-160.02763 c 0.04141,0.96119 -0.02597,1.92702 -0.200453,2.87315 -0.548567,2.97466 -2.137193,5.66873 -4.042451,8.01809 -2.6750528,3.29859 -6.0279597,6.04499 -9.78874651,8.01808 l 2.03793021,-10.08942 9.7553373,-7.81764 z" fill="#ff6b6b" stroke="#000" stroke-width="0.5" opacity="0.7" /><text x="14.733233" y="-160.02763" font-size="4" fill="black" font-weight="bold">path948</text><path id="path970" d="m 48.017487,-162.55919 c 0.260744,-0.0233 0.521579,-0.0457 0.782407,-0.0682 0.873286,-0.0753 2.286523,-0.22684 3.158753,-0.31574 0.492965,-0.0502 0.986242,-0.0928 1.479475,-0.11373 0.875241,-0.0371 2.300533,0.0726 3.150558,0.28362 0.394478,0.0979 0.611078,0.90829 0.540655,1.78211 -0.01467,0.1821 -0.0278,0.36432 -0.03936,0.54664 -0.05551,0.8749 -0.07531,2.29729 -0.04416,3.1734 0.02553,0.71814 0.07516,1.43543 0.148759,2.15025 0.08979,0.87205 -0.486985,1.39764 -1.342132,1.20432 -0.677354,-0.15313 -1.9239,-0.41939 -2.791215,-0.5469 -0.262357,-0.0386 -1.183289,-0.15875 -2.059557,-0.16104 -0.274003,-7.1e-4 -0.547892,0.007 -0.821001,0.0253 -0.874073,0.0571 -2.261169,0.38796 -3.104026,0.62874 -0.822567,0.23499 -2.216349,0.48596 -3.089759,0.43279 -0.5878,-0.0358 -1.258045,-0.82537 -1.430821,-1.68469 -0.124851,-0.62096 -0.300453,-1.8344 -0.35474,-2.70924 -0.04461,-0.71894 -0.05056,-1.44028 -0.01782,-2.15985 0.03985,-0.87562 0.826112,-1.74829 1.687272,-1.91254 0.330925,-0.0631 0.662723,-0.12166 0.995267,-0.1756 0.865369,-0.14039 2.278194,-0.30175 3.151448,-0.37966 z" fill="#ff6b6b" stroke="#000" stroke-width="0.5" opacity="0.7" /><text x="48.017487" y="-162.55919" font-size="4" fill="black" font-weight="bold">path970</text><path id="path974" d="m 42.429038,-150.60638 c 0.419478,-0.62487 1.017073,-1.12872 1.703842,-1.43657 1.015306,-0.45512 2.16784,-0.47333 3.240644,-0.7684 0.783165,-0.21541 1.531126,-0.58028 2.338607,-0.66817 0.639672,-0.0696 1.284971,0.0388 1.913493,0.1766 0.628522,0.1378 1.253758,0.30588 1.895099,0.35794 0.668575,0.0543 1.351066,-0.0178 2.00452,0.13363 0.688255,0.15951 1.326738,0.58545 1.670434,1.20271 0.319438,0.5737 0.367286,1.26023 0.321626,1.91528 -0.04566,0.65504 -0.177151,1.30359 -0.18799,1.96013 -0.0081,0.49026 0.05119,0.98233 0,1.46998 -0.0405,0.38584 -0.151675,0.76672 -0.347457,1.10166 -0.195783,0.33493 -0.478226,0.62254 -0.821848,0.80264 -0.336856,0.17656 -0.719925,0.24564 -1.099073,0.2755 -0.379148,0.0299 -0.76067,0.0228 -1.139307,0.0586 -0.955812,0.0902 -1.864366,0.44923 -2.806333,0.63476 -0.944453,0.18602 -1.913188,0.19605 -2.873147,0.26727 -0.601473,0.0446 -1.210359,0.11316 -1.804069,0.007 -0.500922,-0.0896 -0.972634,-0.30066 -1.46998,-0.40832 -0.350479,-0.0759 -0.710482,-0.0996 -1.069078,-0.10022 -0.304576,-5.2e-4 -0.619574,0.0137 -0.902036,-0.10023 -0.24455,-0.0986 -0.446082,-0.28925 -0.582573,-0.51487 -0.13649,-0.22563 -0.210925,-0.48488 -0.243465,-0.74656 -0.06508,-0.52336 0.03235,-1.05152 0.05764,-1.5783 0.03902,-0.8127 -0.09406,-1.62566 -0.06682,-2.43884 0.0182,-0.54318 0.108318,-1.0839 0.267272,-1.60362 z" fill="#ff6b6b" stroke="#000" stroke-width="0.5" opacity="0.7" /><text x="42.429038" y="-150.60638" font-size="4" fill="black" font-weight="bold">path974</text><path id="path978" d="m 44.337097,-142.32271 c 0.934347,0.16936 1.88705,0.23727 2.835973,0.20214 1.253935,-0.0464 2.493665,-0.27156 3.741774,-0.40091 1.225161,-0.12698 2.477497,-0.16529 3.641548,-0.56794 0.233857,-0.0809 0.463667,-0.17638 0.705118,-0.23055 0.241451,-0.0542 0.499992,-0.0648 0.731456,0.0227 0.179632,0.0679 0.334677,0.19234 0.455793,0.34138 0.121115,0.14903 0.209797,0.32218 0.279198,0.50124 0.270395,0.69764 0.251211,1.47319 0.158479,2.21563 -0.09273,0.74244 -0.25521,1.47953 -0.258706,2.22773 -0.0028,0.60459 0.09832,1.20412 0.162075,1.80535 0.06376,0.60123 0.08919,1.21736 -0.06185,1.80279 -0.05765,0.22347 -0.141194,0.44143 -0.261961,0.63809 -0.120767,0.19666 -0.279687,0.37179 -0.47303,0.4978 -0.202909,0.13225 -0.439738,0.20781 -0.680164,0.23707 -0.240427,0.0293 -0.484765,0.0134 -0.723547,-0.0272 -0.477563,-0.0811 -0.932733,-0.25927 -1.402619,-0.37696 -1.356304,-0.33972 -2.77946,-0.16655 -4.176088,-0.10023 -1.194919,0.0567 -2.401355,0.0344 -3.57473,0.26727 -0.40091,0.0796 -0.801621,0.18925 -1.210188,0.17764 -0.204283,-0.006 -0.409352,-0.0428 -0.596023,-0.12596 -0.186671,-0.0832 -0.354431,-0.21426 -0.465578,-0.38576 -0.139542,-0.21531 -0.182518,-0.47895 -0.195319,-0.7352 -0.0128,-0.25626 0.0012,-0.51471 -0.03854,-0.76819 -0.08802,-0.56153 -0.430747,-1.05204 -0.567947,-1.60362 -0.178571,-0.71789 0.0033,-1.46838 0.09572,-2.20235 0.08983,-0.71326 0.09957,-1.45678 0.405412,-2.10737 0.286966,-0.61044 0.833007,-1.09382 1.473748,-1.30463 z" fill="#ff6b6b" stroke="#000" stroke-width="0.5" opacity="0.7" /><text x="44.337097" y="-142.32271" font-size="4" fill="black" font-weight="bold">path978</text><path id="path1012" d="m 48.456389,-132.42639 c 0.801297,0.0206 1.602369,0.0626 2.403446,0.10463 0.874856,0.0459 2.294535,0.10855 3.171117,0.12484 0.343568,0.006 0.687182,0.0103 1.030807,0.0116 0.876726,0.003 1.696654,0.69049 1.815637,1.55912 0.01598,0.11666 0.03175,0.23335 0.04731,0.35007 0.11584,0.86906 0.281324,2.28102 0.367326,3.15353 0.182716,1.85368 0.301238,3.71398 0.315791,5.57529 0.0069,0.87654 -0.03124,2.29778 -0.07892,3.1732 -0.04113,0.75521 -0.09432,1.50987 -0.149652,2.26439 -0.06411,0.87421 -0.167918,2.2918 -0.21948,3.16702 -0.05552,0.94241 -0.09843,1.88551 -0.119469,2.82901 -0.01955,0.87643 -0.01099,2.29823 0.02311,3.17428 0.02329,0.59825 0.05745,1.19609 0.102463,1.7931 0.06592,0.87424 -0.436207,1.15528 -1.242557,0.81521 -0.697325,-0.29409 -2.008521,-0.52297 -2.869613,-0.68735 -0.181049,-0.0346 -1.078016,-0.16962 -1.77423,-0.69217 -0.147194,-0.11048 -0.727822,-0.76302 -1.084532,-1.55818 -0.08908,-0.19857 -0.453237,-1.00812 -0.859447,-1.78495 -0.31311,-0.59879 -0.91439,-1.70441 -1.329262,-2.47679 -0.562709,-1.04762 -1.122488,-2.09681 -1.676646,-3.14896 -0.40857,-0.77573 -1.068581,-2.03484 -1.458245,-2.82023 -0.342956,-0.69124 -0.669688,-1.39015 -0.959702,-2.10324 -0.329899,-0.81115 -0.758307,-2.1692 -0.939203,-3.02675 -0.264743,-1.25503 -0.388463,-2.54001 -0.381972,-3.82439 0.0044,-0.87649 0.12922,-2.29528 0.27519,-3.15956 0.05668,-0.33558 0.121967,-0.66971 0.195783,-1.00195 0.190109,-0.85564 1.109069,-1.64218 1.982343,-1.71881 0.07996,-0.007 0.159944,-0.0137 0.239959,-0.02 0.873912,-0.069 2.296271,-0.0945 3.172653,-0.0719 z" fill="#ff6b6b" stroke="#000" stroke-width="0.5" opacity="0.7" /><text x="48.456389" y="-132.42639" font-size="4" fill="black" font-weight="bold">path1012</text><path id="path1191" d="m 61.338356,167.6114 c 0.172035,0.23086 0.414431,0.40855 0.686361,0.50313 0.271931,0.0946 0.572273,0.10568 0.850439,0.0314 0.36868,-0.0984 0.692333,-0.34026 1.069078,-0.4009 0.21645,-0.0348 0.437978,-0.007 0.653707,0.0317 0.215728,0.0391 0.430331,0.0898 0.649232,0.10197 0.459975,0.0255 0.912236,-0.1208 1.336348,-0.30068 0.27046,-0.11471 0.542224,-0.24578 0.835217,-0.26727 0.361843,-0.0265 0.712688,0.11686 1.042667,0.26769 0.32998,0.15083 0.666342,0.3149 1.028672,0.33367 0.312604,0.0162 0.62261,-0.0777 0.935443,-0.0668 0.266133,0.009 0.524217,0.0942 0.7684,0.20045 0.647469,0.28171 1.225652,0.72113 1.670435,1.26953 0.06195,1.39223 -0.08496,2.79357 -0.434313,4.14268 -0.386675,1.49323 -1.021621,2.92186 -1.870887,4.2095 -0.85632,-0.40625 -1.860657,-0.49095 -2.772921,-0.23386 -0.594896,0.16765 -1.155438,0.47531 -1.770661,0.53454 -0.199734,0.0192 -0.401036,0.0116 -0.601356,0 -0.690412,-0.0401 -1.382441,-0.12757 -2.071339,-0.0668 -0.445433,0.0393 -0.885332,0.14081 -1.302939,0.30068 -0.430705,-1.48294 -0.721945,-3.00635 -0.868626,-4.54359 -0.192016,-2.01236 -0.135775,-4.04828 0.167043,-6.04697 z" fill="#ff6b6b" stroke="#000" stroke-width="0.5" opacity="0.7" /><text x="61.338356" y="167.6114" font-size="4" fill="black" font-weight="bold">path1191</text></svg>